<?xml version="1.0" standalone="no"?><!DOCTYPE svg PUBLIC "-//W3C//DTD SVG 1.1//EN" "http://www.w3.org/Graphics/SVG/1.1/DTD/svg11.dtd"><svg t="1653186872508" class="icon" viewBox="0 0 1024 1024" version="1.1" xmlns="http://www.w3.org/2000/svg" p-id="4376" xmlns:xlink="http://www.w3.org/1999/xlink" width="200" height="200"><defs><style type="text/css">@font-face { font-family: feedback-iconfont; src: url("//at.alicdn.com/t/font_1031158_u69w8yhxdu.woff2?t=1630033759944") format("woff2"), url("//at.alicdn.com/t/font_1031158_u69w8yhxdu.woff?t=1630033759944") format("woff"), url("//at.alicdn.com/t/font_1031158_u69w8yhxdu.ttf?t=1630033759944") format("truetype"); }
</style></defs><path d="M927.8 478H175.5l219.3-219.3c10.7-10.7 10.7-28.1 0-38.7l-6.5-6.5c-10.7-10.7-28.1-10.7-38.7 0L81.7 481.3c-9.2 4.5-16 13.4-17.6 23.9-1.5 7.1-0.1 14.7 4 21 2.4 4 5.6 7.5 9.4 10.1l0.5 0.5c2.6 2.6 5.6 4.6 8.8 5.9l266.7 266.7c10.7 10.7 28.1 10.7 38.7 0l6.5-6.5c10.7-10.7 10.7-28.1 0-38.7l-222-222.3h751.1c17.6 0 32-14.4 32-32 0-17.5-14.4-31.9-32-31.9z" fill="#ffffff" p-id="4377"></path></svg>